# Blender v2.79 (sub 0) OBJ File: 'building 1.blend'
# www.blender.org
mtllib building 1.mtl
o building_Cube
v 3.022497 0.114472 -3.022497
v 3.022497 0.114472 3.022497
v -3.022497 0.114472 3.022496
v -3.022496 0.114472 -3.022498
v 3.022499 8.793550 -3.022495
v 3.022495 8.793550 3.022499
v -3.022498 8.793550 3.022495
v -3.022496 8.793550 -3.022497
v 3.615682 8.793550 -3.615678
v 3.615678 8.793550 3.615683
v -3.615681 8.793550 3.615679
v -3.615680 8.793550 -3.615681
v 3.615682 9.601919 -3.615678
v 3.615678 9.601919 3.615683
v -3.615681 9.601919 3.615679
v -3.615680 9.601919 -3.615681
v 2.880796 9.816566 -2.880793
v 2.880793 9.816566 2.880796
v -2.880795 9.816566 2.880794
v -2.880794 9.816566 -2.880795
v 2.880796 9.220327 -2.880793
v 2.880793 9.220327 2.880796
v -2.880795 9.220327 2.880794
v -2.880794 9.220327 -2.880795
v -2.055560 9.220326 -1.098856
v -1.544187 9.962918 -1.098856
v -2.055560 9.220326 -2.144693
v -1.544187 9.962918 -2.144693
v -0.240270 9.220326 -1.098856
v -0.240270 10.279789 -1.098856
v -0.240270 9.220326 -2.144693
v -0.240270 10.279789 -2.144693
v 3.022494 0.310751 0.993428
v 3.022502 0.444346 0.993428
v 3.022494 0.310751 -1.006572
v 3.022502 0.444346 -1.006572
v 3.192918 0.310438 0.993428
v 3.192918 0.444346 0.993428
v 3.192918 0.310438 -1.006572
v 3.192918 0.444346 -1.006572
v 3.022494 0.114468 0.993428
v 3.022502 0.311513 0.993428
v 3.022494 0.114468 -1.006572
v 3.022502 0.311513 -1.006572
v 3.398903 0.114155 0.993428
v 3.398903 0.311513 0.993428
v 3.398903 0.114155 -1.006572
v 3.398903 0.311513 -1.006572
vt 0.854557 0.400474
vt 0.854557 0.679404
vt 0.569705 0.679404
vt 0.569705 0.400474
vt 0.298331 0.972629
vt 0.298331 0.693698
vt 0.326283 0.666328
vt 0.326283 1.000000
vt 0.854557 0.000000
vt 0.854557 0.400474
vt 0.569705 0.400474
vt 0.569705 0.000000
vt 0.284853 0.400474
vt 0.284852 0.000000
vt 0.569705 0.000000
vt 0.569705 0.400474
vt 0.000000 0.400474
vt 0.000000 0.000000
vt 0.284852 0.000000
vt 0.284852 0.400474
vt 0.000000 0.800947
vt 0.000000 0.400474
vt 0.284852 0.800947
vt 0.892649 0.000000
vt 0.892649 0.333673
vt 0.854557 0.333673
vt 0.854557 0.000000
vt 0.382187 0.693698
vt 0.382187 0.972629
vt 0.354235 1.000000
vt 0.354235 0.666328
vt 0.382187 0.972629
vt 0.382187 0.693698
vt 0.410139 0.666328
vt 0.410139 1.000000
vt 0.326283 0.972629
vt 0.326283 0.693698
vt 0.354235 0.666328
vt 0.965661 0.000000
vt 0.965661 0.333672
vt 0.930741 0.299763
vt 0.930741 0.033909
vt 0.892649 0.667345
vt 0.892649 0.333673
vt 0.930741 0.333673
vt 0.930741 0.667345
vt 0.854557 0.667345
vt 0.930741 0.000000
vt 0.930741 0.333672
vt 0.892649 0.333672
vt 0.892649 0.000000
vt 0.522523 0.666328
vt 0.522523 0.932181
vt 0.494427 0.932181
vt 0.494427 0.666328
vt 0.965371 0.333673
vt 0.965371 0.667193
vt 0.930741 0.632999
vt 0.930741 0.367267
vt 1.000000 0.333673
vt 1.000000 0.667193
vt 0.965371 0.633598
vt 0.965371 0.367866
vt 0.965661 0.333672
vt 0.965661 0.000000
vt 0.999968 0.033909
vt 0.999969 0.299763
vt 0.298331 0.400474
vt 0.569705 0.400474
vt 0.569705 0.666327
vt 0.298331 0.666327
vt 0.466331 0.932181
vt 0.466331 0.666328
vt 0.494427 0.666328
vt 0.438235 0.932181
vt 0.438235 0.666328
vt 0.466331 0.666328
vt 0.466331 0.932181
vt 0.438235 0.666328
vt 0.410139 0.932181
vt 0.410139 0.666328
vt 0.522523 0.666328
vt 0.557516 0.666328
vt 0.557516 0.714585
vt 0.522523 0.714585
vt 0.569705 0.679404
vt 0.604697 0.703000
vt 0.619629 0.763166
vt 0.569705 0.763166
vt 0.718835 0.788871
vt 0.718835 0.739985
vt 0.768117 0.739985
vt 0.768117 0.788871
vt 0.669553 0.763166
vt 0.619629 0.763166
vt 0.634561 0.703000
vt 0.669553 0.679404
vt 0.669553 0.763166
vt 0.669553 0.679404
vt 0.718835 0.679404
vt 0.718835 0.763166
vt 0.718835 0.679404
vt 0.768117 0.679404
vt 0.809878 0.771689
vt 0.803583 0.771689
vt 0.803583 0.679404
vt 0.809878 0.679404
vt 0.541138 0.714585
vt 0.547433 0.714585
vt 0.547433 0.722449
vt 0.541123 0.722449
vt 0.295341 0.769613
vt 0.289031 0.769613
vt 0.289031 0.677328
vt 0.295341 0.677328
vt 0.553743 0.722449
vt 0.547433 0.722449
vt 0.547433 0.714585
vt 0.553728 0.714585
vt 0.297062 0.677328
vt 0.289031 0.677328
vt 0.289031 0.585043
vt 0.297062 0.585043
vt 0.557516 0.666328
vt 0.565543 0.666328
vt 0.565543 0.758612
vt 0.557516 0.758612
vt 0.298316 0.585043
vt 0.289031 0.585043
vt 0.289031 0.492759
vt 0.298316 0.492759
vt 0.541109 0.731953
vt 0.531824 0.731953
vt 0.531823 0.714585
vt 0.541123 0.714585
vt 0.298331 0.492759
vt 0.289031 0.492759
vt 0.289031 0.400474
vt 0.298331 0.400474
vt 0.531823 0.731953
vt 0.522523 0.731953
vt 0.522523 0.714585
vt 0.531808 0.714585
vt 0.785854 0.771689
vt 0.768117 0.771689
vt 0.768117 0.679404
vt 0.785854 0.679404
vt 0.785854 0.679404
vt 0.803583 0.679404
vt 0.803583 0.771689
vt 0.785854 0.771689
vn 0.0000 -1.0000 0.0000
vn 1.0000 0.0000 0.0000
vn -0.0000 -0.0000 1.0000
vn -1.0000 -0.0000 -0.0000
vn 0.0000 0.0000 -1.0000
vn -0.2804 0.9599 -0.0000
vn 0.0000 0.9599 -0.2804
vn -0.0000 0.9599 0.2804
vn 0.2804 0.9599 0.0000
vn 0.0000 1.0000 -0.0000
vn -0.8236 0.5672 0.0000
vn -0.2361 0.9717 0.0000
vn -1.0000 0.0001 0.0000
vn -0.0018 -1.0000 0.0000
vn -0.0008 -1.0000 0.0000
usemtl Material.003
s off
f 1/1/1 2/2/1 3/3/1 4/4/1
f 7/5/1 6/6/1 10/7/1 11/8/1
f 1/9/2 5/10/2 6/11/2 2/12/2
f 2/13/3 6/14/3 7/15/3 3/16/3
f 3/17/4 7/18/4 8/19/4 4/20/4
f 5/21/5 1/22/5 4/20/5 8/23/5
f 10/24/2 9/25/2 13/26/2 14/27/2
f 6/28/1 5/29/1 9/30/1 10/31/1
f 8/32/1 7/33/1 11/34/1 12/35/1
f 5/36/1 8/37/1 12/38/1 9/30/1
f 16/39/6 15/40/6 19/41/6 20/42/6
f 12/43/4 11/44/4 15/45/4 16/46/4
f 9/25/5 12/43/5 16/47/5 13/26/5
f 11/48/3 10/49/3 14/50/3 15/51/3
f 19/52/5 18/53/5 22/54/5 23/55/5
f 13/56/7 16/57/7 20/58/7 17/59/7
f 15/60/8 14/61/8 18/62/8 19/63/8
f 14/64/9 13/65/9 17/66/9 18/67/9
f 21/68/10 24/69/10 23/70/10 22/71/10
f 18/72/4 17/73/4 21/74/4 22/54/4
f 20/75/2 19/76/2 23/77/2 24/78/2
f 17/79/3 20/75/3 24/80/3 21/81/3
f 25/82/11 26/83/11 28/84/11 27/85/11
f 27/86/5 28/87/5 32/88/5 31/89/5
f 31/90/2 32/91/2 30/92/2 29/93/2
f 29/94/3 30/95/3 26/96/3 25/97/3
f 27/98/1 31/99/1 29/100/1 25/101/1
f 32/91/12 28/102/12 26/103/12 30/92/12
f 33/104/13 34/105/13 36/106/13 35/107/13
f 35/108/5 36/109/5 40/110/5 39/111/5
f 39/112/2 40/113/2 38/114/2 37/115/2
f 37/116/3 38/117/3 34/118/3 33/119/3
f 35/120/14 39/121/14 37/122/14 33/123/14
f 40/124/10 36/125/10 34/126/10 38/127/10
f 41/128/4 42/129/4 44/130/4 43/131/4
f 43/132/5 44/133/5 48/134/5 47/135/5
f 47/136/2 48/137/2 46/138/2 45/139/2
f 45/140/3 46/141/3 42/142/3 41/143/3
f 43/144/15 47/145/15 45/146/15 41/147/15
f 48/148/10 44/149/10 42/150/10 46/151/10
